<svg id="svg" version="1.1" xmlns="http://www.w3.org/2000/svg" xmlns:xlink="http://www.w3.org/1999/xlink" width="400" height="554.014598540146" viewBox="0, 0, 400,554.014598540146"><g id="svgg"><path id="path0" d="M189.234 253.163 C 169.922 254.757,154.394 259.031,137.044 267.527 C 52.146 309.103,26.020 418.258,82.844 493.978 C 108.631 528.342,149.838 551.127,189.874 553.161 L 194.528 553.397 194.436 506.013 L 194.343 458.628 189.964 457.996 C 151.442 452.438,121.104 427.892,106.668 390.602 C 106.527 390.239,115.105 390.146,148.815 390.146 C 172.093 390.146,191.901 390.042,192.832 389.914 L 194.526 389.682 194.526 366.921 C 194.526 354.403,194.644 344.161,194.789 344.161 C 194.933 344.161,195.969 345.023,197.091 346.077 C 198.213 347.130,197.637 346.515,195.812 344.708 C 189.151 338.114,181.281 333.904,171.168 331.526 C 168.685 330.941,165.439 330.870,136.223 330.754 C 106.132 330.636,104.015 330.586,104.018 330.003 C 104.030 328.141,108.335 316.747,111.287 310.766 C 126.491 279.971,154.354 259.553,188.695 254.042 C 194.642 253.088,194.882 252.697,189.234 253.163 " stroke="none" fill="#fcb028" fill-rule="evenodd"></path><path id="path1" d="M194.526 366.948 L 194.526 389.735 193.339 389.882 C 192.687 389.963,196.382 390.055,201.551 390.088 L 210.949 390.146 210.947 383.120 C 210.946 375.474,210.487 371.623,208.935 366.230 C 207.845 362.445,203.355 353.041,202.231 352.190 C 202.099 352.089,201.687 351.531,201.316 350.950 C 200.470 349.622,195.259 344.161,194.838 344.161 C 194.666 344.161,194.526 354.415,194.526 366.948 M300.592 390.340 C 290.225 423.302,256.725 451.475,220.803 457.441 C 213.363 458.676,197.469 459.395,194.989 458.608 C 194.373 458.412,194.347 460.591,194.437 505.844 L 194.531 553.285 192.977 553.339 L 191.423 553.394 193.066 553.638 C 198.928 554.507,217.516 553.926,228.832 552.520 C 261.059 548.514,296.065 534.720,319.939 516.618 L 321.447 515.474 318.296 510.735 C 310.066 498.354,304.861 485.228,302.750 471.533 C 302.425 469.425,302.059 467.290,301.937 466.788 C 301.815 466.286,301.617 448.390,301.496 427.019 C 301.278 388.325,301.275 388.172,300.592 390.340 " stroke="none" fill="#fbdca2" fill-rule="evenodd"></path><path id="path2" d="M369.251 0.380 C 338.652 2.562,312.772 23.549,304.199 53.131 C 301.510 62.410,301.683 58.300,301.469 118.066 L 301.277 171.715 300.503 173.390 C 297.433 180.026,292.311 180.936,282.927 176.511 C 197.538 136.246,95.198 162.113,39.012 238.161 C -28.086 328.978,-6.100 457.179,87.409 520.359 C 117.085 540.410,154.176 552.724,188.190 553.818 L 193.613 553.992 188.504 553.461 C 144.114 548.843,106.848 529.254,81.247 497.080 C 8.639 405.832,61.259 272.979,177.372 254.388 C 232.898 245.498,283.272 276.651,297.666 328.781 C 301.319 342.008,301.426 344.084,301.659 406.012 C 301.768 434.922,302.020 460.762,302.217 463.433 C 303.440 479.940,308.966 496.005,318.211 509.931 C 320.038 512.683,321.533 515.118,321.533 515.343 C 321.533 516.067,325.961 521.236,330.282 525.557 C 345.481 540.753,365.813 550.761,386.679 553.316 C 392.770 554.062,396.457 552.401,398.812 547.851 L 400.002 545.553 399.910 276.517 L 399.818 7.482 399.010 5.973 C 396.010 0.364,388.713 -1.008,369.251 0.380 " stroke="none" fill="#2444c4" fill-rule="evenodd"></path><path id="path3" d="M301.635 425.547 C 301.635 445.520,301.680 453.691,301.733 443.704 C 301.787 433.718,301.787 417.377,301.733 407.391 C 301.680 397.404,301.635 405.575,301.635 425.547 M301.909 465.328 C 301.909 466.031,301.985 466.318,302.076 465.967 C 302.168 465.616,302.168 465.041,302.076 464.690 C 301.985 464.339,301.909 464.626,301.909 465.328 M310.949 497.946 C 310.949 498.341,312.399 501.095,312.606 501.095 C 312.706 501.095,312.437 500.397,312.006 499.544 C 311.160 497.866,310.949 497.547,310.949 497.946 " stroke="none" fill="#8494d4" fill-rule="evenodd"></path><path id="path4" d="M197.160 252.498 C 196.881 252.675,197.452 252.812,198.570 252.837 C 199.602 252.861,200.388 252.829,200.315 252.766 C 199.941 252.443,197.565 252.241,197.160 252.498 M191.154 252.813 C 191.608 252.900,192.265 252.897,192.614 252.806 C 192.963 252.714,192.591 252.643,191.788 252.647 C 190.985 252.651,190.700 252.726,191.154 252.813 M194.069 252.812 C 194.521 252.899,195.260 252.899,195.712 252.812 C 196.163 252.725,195.794 252.654,194.891 252.654 C 193.987 252.654,193.618 252.725,194.069 252.812 M301.924 462.774 C 301.924 463.677,301.995 464.047,302.082 463.595 C 302.169 463.143,302.169 462.404,302.082 461.953 C 301.995 461.501,301.924 461.870,301.924 462.774 " stroke="none" fill="#687acd" fill-rule="evenodd"></path></g></svg>