<svg id="svg" version="1.1" xmlns="http://www.w3.org/2000/svg" xmlns:xlink="http://www.w3.org/1999/xlink" width="400" height="296.36711281070745" viewBox="0, 0, 400,296.36711281070745"><g id="svgg"><path id="path0" d="M97.706 132.524 C 67.179 135.958,41.318 156.870,31.639 185.946 C 16.744 230.697,43.775 278.295,89.771 288.307 C 92.323 288.862,97.546 289.675,98.564 289.675 L 99.044 289.675 99.044 264.765 L 99.044 239.855 97.467 239.607 C 79.583 236.800,63.331 223.692,56.420 206.501 L 55.460 204.111 77.252 204.062 L 99.044 204.014 99.044 190.859 L 99.044 177.705 97.561 176.809 C 95.824 175.758,93.396 174.703,91.500 174.173 C 88.212 173.255,87.724 173.233,70.407 173.232 L 54.104 173.231 54.226 172.706 C 58.755 153.226,77.464 136.038,97.390 133.050 C 98.247 132.921,98.991 132.759,99.044 132.689 C 99.097 132.619,99.269 132.513,99.426 132.453 C 99.813 132.306,99.555 132.316,97.706 132.524 M305.163 138.443 C 302.481 138.737,300.136 138.984,299.952 138.992 C 299.681 139.003,299.618 139.183,299.618 139.935 L 299.618 140.864 301.536 141.082 C 304.546 141.424,305.497 142.054,305.910 143.981 C 306.266 145.638,306.190 195.904,305.829 197.610 C 305.307 200.083,304.532 200.587,300.526 201.063 L 299.618 201.171 299.618 202.115 L 299.618 203.059 309.560 203.059 L 319.503 203.059 319.503 202.129 L 319.503 201.198 317.840 200.984 C 315.649 200.701,314.582 200.168,313.958 199.044 L 313.480 198.184 313.426 187.161 L 313.373 176.139 314.493 174.733 C 319.080 168.975,325.134 167.508,328.961 171.227 C 331.118 173.324,331.161 173.621,331.164 186.438 C 331.167 200.793,331.238 200.577,326.338 201.053 L 325.048 201.178 325.048 202.118 L 325.048 203.059 334.704 203.059 L 344.359 203.059 344.359 202.103 C 344.359 201.468,344.279 201.146,344.120 201.143 C 342.192 201.113,340.013 200.356,339.471 199.529 C 338.582 198.172,338.556 197.839,338.434 186.042 C 338.320 175.046,338.310 174.834,337.878 173.518 C 336.133 168.202,331.889 165.207,326.099 165.207 C 321.899 165.207,319.323 166.402,315.441 170.149 L 313.384 172.134 313.384 154.996 L 313.384 137.859 311.711 137.883 C 310.791 137.897,307.844 138.149,305.163 138.443 M217.782 144.551 L 217.782 145.507 218.703 145.507 C 222.030 145.507,223.807 147.468,224.293 151.677 C 224.674 154.982,224.434 195.227,224.023 196.777 C 223.316 199.450,222.049 200.559,219.222 200.980 L 217.782 201.194 217.782 202.127 L 217.782 203.061 239.233 203.012 L 260.684 202.964 261.427 200.000 C 261.836 198.370,262.454 195.853,262.801 194.407 L 263.431 191.778 262.439 191.778 L 261.447 191.778 260.886 192.966 C 258.957 197.048,256.750 199.050,253.537 199.631 C 251.720 199.960,236.725 200.109,235.297 199.813 C 232.483 199.229,232.505 199.337,232.505 185.853 L 232.505 174.935 241.826 175.000 C 253.758 175.083,253.615 175.035,254.983 179.398 L 255.328 180.497 256.345 180.497 L 257.361 180.497 257.361 173.231 L 257.361 165.966 256.348 165.966 L 255.335 165.966 255.098 167.109 C 254.698 169.049,253.797 170.543,252.682 171.117 L 251.732 171.606 242.118 171.661 L 232.505 171.715 232.505 159.174 L 232.505 146.633 243.164 146.696 C 255.148 146.768,255.508 146.807,256.966 148.226 C 257.732 148.972,258.784 151.080,259.105 152.512 C 259.326 153.501,259.357 153.537,259.973 153.537 L 260.612 153.537 260.612 148.566 L 260.612 143.595 239.197 143.595 L 217.782 143.595 217.782 144.551 M354.728 146.666 C 350.374 148.874,351.993 155.317,356.907 155.337 C 361.376 155.356,363.165 149.368,359.429 146.895 C 358.316 146.158,355.957 146.043,354.728 146.666 M279.965 165.467 C 274.765 166.784,271.115 171.665,271.580 176.676 C 271.996 181.151,274.296 183.440,281.860 186.908 C 289.151 190.251,290.898 191.949,290.903 195.698 C 290.910 201.884,283.759 203.992,277.875 199.538 C 275.740 197.923,274.037 195.301,273.299 192.495 L 272.960 191.205 272.044 191.205 L 271.128 191.205 271.128 197.610 L 271.128 204.015 272.060 204.015 C 272.949 204.015,272.998 203.988,273.111 203.424 C 273.517 201.394,274.841 201.175,278.362 202.552 C 284.998 205.149,288.845 204.651,292.852 200.678 C 295.305 198.246,296.177 196.163,296.174 192.747 C 296.167 187.037,293.851 184.338,285.468 180.272 C 281.230 178.216,279.109 176.855,278.224 175.623 C 275.426 171.727,277.898 167.459,282.965 167.439 C 287.420 167.421,290.844 170.497,291.861 175.430 L 292.097 176.577 293.180 176.635 L 294.264 176.692 294.264 170.946 L 294.264 165.201 293.313 165.201 C 292.451 165.201,292.334 165.254,292.067 165.771 C 291.370 167.118,290.361 167.172,287.135 166.035 C 284.856 165.232,281.836 164.992,279.965 165.467 M351.721 165.776 C 348.776 166.067,346.346 166.315,346.319 166.327 C 346.293 166.338,346.272 166.766,346.272 167.276 L 346.272 168.204 348.040 168.311 C 353.345 168.634,353.183 168.090,353.112 185.285 L 353.059 198.184 352.618 199.080 C 351.960 200.415,349.934 201.111,346.606 201.144 C 346.333 201.147,346.272 201.321,346.272 202.103 L 346.272 203.059 356.405 203.059 L 366.539 203.059 366.539 202.118 L 366.539 201.178 365.249 201.053 C 360.149 200.558,360.421 201.667,360.421 181.327 L 360.421 165.201 358.748 165.224 C 357.827 165.237,354.665 165.485,351.721 165.776 " stroke="none" fill="#fcac1e" fill-rule="evenodd"></path><path id="path1" d="M99.331 132.512 C 99.091 132.619,99.592 132.641,100.669 132.569 C 101.616 132.506,102.426 132.422,102.470 132.384 C 102.643 132.231,99.689 132.352,99.331 132.512 M99.044 190.906 L 99.044 204.015 104.709 204.015 L 110.374 204.015 110.271 199.761 C 110.044 190.405,106.509 183.110,99.934 178.430 L 99.044 177.797 99.044 190.906 M157.101 205.404 C 148.432 228.377,125.951 242.234,100.813 240.098 L 99.044 239.948 99.044 264.789 L 99.044 289.630 99.474 289.758 C 100.345 290.016,108.952 290.103,112.449 289.888 C 131.508 288.720,148.567 283.013,164.264 272.553 C 168.779 269.545,168.504 269.961,167.194 268.137 C 163.666 263.225,160.546 256.225,159.193 250.185 C 158.018 244.940,158.061 245.857,157.946 223.759 L 157.839 203.446 157.101 205.404 " stroke="none" fill="#fbdca2" fill-rule="evenodd"></path><path id="path2" d="M193.499 0.119 C 187.415 0.759,183.493 1.850,178.776 4.213 C 169.245 8.986,161.725 18.321,159.091 28.646 C 157.996 32.940,158.065 30.958,157.948 61.568 L 157.839 89.771 157.400 90.727 C 155.813 94.177,153.069 94.774,148.559 92.651 C 81.529 61.100,4.628 106.824,0.174 180.880 C -3.252 237.822,42.341 288.065,99.140 289.939 C 101.825 290.028,101.880 290.023,100.000 289.863 C 93.261 289.288,89.666 288.742,84.901 287.567 C 31.960 274.519,8.072 212.825,38.335 167.304 C 60.051 134.640,105.090 122.258,133.413 141.166 C 146.069 149.615,154.579 162.566,157.060 177.151 C 157.790 181.446,157.796 181.680,157.931 212.524 C 158.049 239.763,158.097 243.154,158.390 245.124 C 159.645 253.577,162.166 260.300,166.571 266.941 C 167.605 268.501,168.451 269.832,168.451 269.900 C 168.451 269.968,168.813 270.466,169.256 271.006 C 177.127 280.618,187.797 286.978,199.799 289.213 C 205.381 290.253,208.094 289.310,209.080 285.989 C 209.337 285.126,209.369 269.290,209.369 144.810 L 209.369 4.603 208.978 3.559 C 208.507 2.301,207.367 1.070,206.148 0.507 C 205.295 0.113,196.208 -0.166,193.499 0.119 M382.648 200.255 L 376.673 200.843 376.673 201.855 L 376.673 202.868 378.633 202.869 C 381.718 202.871,382.892 203.361,383.628 204.954 L 384.034 205.832 384.087 231.166 C 384.119 246.601,384.068 257.149,383.955 258.160 C 383.556 261.736,382.600 262.709,379.330 262.866 L 377.438 262.957 377.438 263.888 L 377.438 264.818 387.667 264.818 L 397.897 264.818 397.897 263.890 L 397.897 262.962 396.128 262.857 C 393.364 262.691,392.139 262.000,391.551 260.271 C 391.360 259.712,391.296 253.153,391.252 229.589 L 391.195 199.618 389.909 199.643 C 389.202 199.657,385.935 199.932,382.648 200.255 M224.637 208.285 C 219.743 210.115,221.213 217.220,226.482 217.203 C 231.069 217.188,232.516 210.591,228.399 208.462 C 227.615 208.057,225.512 207.958,224.637 208.285 M293.642 208.303 C 289.082 209.931,289.930 216.657,294.758 217.155 C 297.620 217.450,299.815 215.458,299.805 212.574 C 299.793 209.310,296.744 207.197,293.642 208.303 M319.814 217.355 C 317.005 222.361,311.899 227.661,308.999 228.581 C 308.664 228.688,308.604 228.863,308.604 229.745 L 308.604 230.784 312.046 230.784 L 315.488 230.784 315.491 243.738 C 315.494 254.266,315.546 256.935,315.769 257.990 C 317.607 266.664,328.173 268.815,335.394 261.985 C 337.434 260.056,337.531 259.832,336.700 258.975 L 336.077 258.332 334.943 259.383 C 330.818 263.201,325.126 262.537,323.309 258.025 L 322.849 256.883 322.795 243.834 L 322.741 230.784 329.057 230.784 L 335.373 230.784 335.373 229.350 L 335.373 227.916 329.063 227.916 L 322.753 227.916 322.753 221.702 L 322.753 215.488 321.808 215.488 L 320.863 215.488 319.814 217.355 M221.797 227.547 C 218.800 227.841,216.197 228.087,216.013 228.094 C 215.743 228.105,215.679 228.283,215.679 229.031 L 215.679 229.956 217.754 230.157 C 222.756 230.643,222.451 229.632,222.527 245.985 C 222.606 263.193,222.819 262.486,217.447 262.846 L 215.679 262.964 215.679 263.891 L 215.679 264.818 225.813 264.818 L 235.946 264.818 235.946 263.862 L 235.946 262.906 235.217 262.906 C 232.802 262.906,231.003 262.133,230.354 260.816 L 229.924 259.943 229.872 243.451 L 229.820 226.960 228.533 226.986 C 227.826 227.000,224.794 227.253,221.797 227.547 M256.501 227.079 C 240.263 229.382,237.636 251.115,253.011 255.939 C 254.381 256.369,254.378 256.401,252.916 256.961 C 241.276 261.418,239.546 269.769,249.603 272.957 L 250.926 273.377 248.551 274.523 C 241.192 278.075,238.347 281.896,239.377 286.849 C 241.678 297.922,265.513 299.793,275.946 289.720 C 280.688 285.142,281.288 278.669,277.342 274.654 C 274.793 272.060,271.636 270.976,260.421 268.846 C 250.858 267.029,248.948 266.184,248.948 263.767 C 248.948 260.999,254.837 257.581,260.806 256.883 C 265.168 256.373,267.114 255.450,270.076 252.486 C 275.365 247.196,275.953 239.780,271.599 233.277 L 270.571 231.740 275.343 231.740 L 280.115 231.740 280.115 229.565 L 280.115 227.389 270.698 227.269 C 265.519 227.203,260.335 227.115,259.178 227.073 C 258.021 227.032,256.816 227.034,256.501 227.079 M290.727 227.543 C 287.677 227.838,285.074 228.086,284.943 228.093 C 284.786 228.102,284.704 228.426,284.704 229.028 L 284.704 229.948 286.834 230.171 C 291.801 230.690,291.618 230.031,291.546 247.136 C 291.477 263.336,291.753 262.481,286.472 262.843 L 284.704 262.964 284.704 263.891 L 284.704 264.818 294.837 264.818 L 304.971 264.818 304.971 263.891 L 304.971 262.963 303.421 262.843 C 301.277 262.678,299.984 262.075,299.391 260.963 L 298.948 260.134 298.896 243.547 L 298.845 226.960 297.558 226.983 C 296.850 226.996,293.776 227.248,290.727 227.543 M351.721 227.229 C 346.666 228.219,342.689 231.876,341.128 236.969 C 340.666 238.479,340.681 238.536,341.598 238.708 C 341.975 238.779,342.391 238.878,342.523 238.929 C 342.676 238.987,342.955 238.544,343.290 237.711 C 346.900 228.744,359.103 229.054,360.412 238.145 C 360.518 238.881,360.606 240.187,360.608 241.047 L 360.612 242.611 359.099 243.194 C 358.267 243.515,355.850 244.300,353.727 244.938 C 343.702 247.953,340.835 250.137,340.270 255.189 C 339.342 263.488,349.664 269.101,356.928 264.248 C 357.535 263.843,358.610 262.957,359.319 262.279 L 360.607 261.046 361.093 262.106 C 362.371 264.899,364.242 266.060,367.249 265.929 C 371.162 265.757,373.444 263.449,374.063 259.034 L 374.163 258.317 373.170 258.317 L 372.176 258.317 371.733 259.553 C 371.017 261.549,370.263 262.194,369.143 261.768 C 367.882 261.288,367.697 259.409,367.691 246.978 C 367.686 236.878,367.642 236.459,366.311 233.671 C 363.994 228.818,357.731 226.053,351.721 227.229 M262.005 229.985 C 269.495 233.672,269.543 250.607,262.073 254.027 C 255.384 257.090,249.854 251.554,249.837 241.778 C 249.820 232.474,255.628 226.845,262.005 229.985 M360.612 251.214 L 360.612 257.304 360.067 258.056 C 357.863 261.099,353.601 262.665,351.052 261.367 C 347.240 259.426,346.423 252.756,349.649 249.917 C 350.958 248.764,358.722 245.337,360.468 245.140 C 360.547 245.132,360.612 247.865,360.612 251.214 M258.074 275.057 C 271.827 277.655,275.806 279.690,275.811 284.130 C 275.817 290.078,267.082 293.464,256.304 291.692 C 241.830 289.312,239.513 279.407,252.411 275.055 C 253.504 274.687,254.417 274.384,254.441 274.382 C 254.464 274.380,256.099 274.684,258.074 275.057 " stroke="none" fill="#2444c4" fill-rule="evenodd"></path><path id="path3" d="" stroke="none" fill="#2444cc" fill-rule="evenodd"></path><path id="path4" d="M101.769 132.254 C 101.953 132.302,102.254 132.302,102.438 132.254 C 102.622 132.206,102.471 132.167,102.103 132.167 C 101.735 132.167,101.585 132.206,101.769 132.254 M157.992 241.300 C 157.992 241.879,158.028 242.115,158.072 241.826 C 158.116 241.537,158.116 241.064,158.072 240.774 C 158.028 240.485,157.992 240.722,157.992 241.300 M158.171 243.977 C 158.171 244.345,158.210 244.496,158.258 244.312 C 158.306 244.128,158.306 243.826,158.258 243.642 C 158.210 243.458,158.171 243.609,158.171 243.977 " stroke="none" fill="#6c84d2" fill-rule="evenodd"></path></g></svg>